<?xml version="1.0" standalone="no"?>
<svg xmlns:xlink="http://www.w3.org/1999/xlink" id="wave" style="transform:rotate(180deg); transition: 0.3s" viewBox="0 0 1440 100" version="1.1" xmlns="http://www.w3.org/2000/svg"><defs><linearGradient id="sw-gradient-0" x1="0" x2="0" y1="1" y2="0"><stop stop-color="rgba(5, 5, 55, 1)" offset="0%"/><stop stop-color="rgba(5, 5, 55, 1)" offset="100%"/></linearGradient></defs><path style="transform:translate(0, 0px); opacity:1" fill="url(#sw-gradient-0)" d="M0,50L30,41.7C60,33,120,17,180,11.7C240,7,300,13,360,25C420,37,480,53,540,63.3C600,73,660,77,720,78.3C780,80,840,80,900,70C960,60,1020,40,1080,40C1140,40,1200,60,1260,68.3C1320,77,1380,73,1440,68.3C1500,63,1560,57,1620,55C1680,53,1740,57,1800,61.7C1860,67,1920,73,1980,73.3C2040,73,2100,67,2160,63.3C2220,60,2280,60,2340,61.7C2400,63,2460,67,2520,63.3C2580,60,2640,50,2700,50C2760,50,2820,60,2880,56.7C2940,53,3000,37,3060,36.7C3120,37,3180,53,3240,56.7C3300,60,3360,50,3420,41.7C3480,33,3540,27,3600,33.3C3660,40,3720,60,3780,66.7C3840,73,3900,67,3960,63.3C4020,60,4080,60,4140,65C4200,70,4260,80,4290,85L4320,90L4320,100L4290,100C4260,100,4200,100,4140,100C4080,100,4020,100,3960,100C3900,100,3840,100,3780,100C3720,100,3660,100,3600,100C3540,100,3480,100,3420,100C3360,100,3300,100,3240,100C3180,100,3120,100,3060,100C3000,100,2940,100,2880,100C2820,100,2760,100,2700,100C2640,100,2580,100,2520,100C2460,100,2400,100,2340,100C2280,100,2220,100,2160,100C2100,100,2040,100,1980,100C1920,100,1860,100,1800,100C1740,100,1680,100,1620,100C1560,100,1500,100,1440,100C1380,100,1320,100,1260,100C1200,100,1140,100,1080,100C1020,100,960,100,900,100C840,100,780,100,720,100C660,100,600,100,540,100C480,100,420,100,360,100C300,100,240,100,180,100C120,100,60,100,30,100L0,100Z"/></svg>